<?xml version="1.0" encoding="UTF-8"?>
<!DOCTYPE svg PUBLIC "-//W3C//DTD SVG 1.1//EN" "http://www.w3.org/Graphics/SVG/1.1/DTD/svg11.dtd">
<svg xmlns="http://www.w3.org/2000/svg" version="1.1" width="38px" height="47px" style="shape-rendering:geometricPrecision; text-rendering:geometricPrecision; image-rendering:optimizeQuality; fill-rule:evenodd; clip-rule:evenodd" xmlns:xlink="http://www.w3.org/1999/xlink">
<g><path style="opacity:0.541" fill="#fefffe" d="M 2.5,15.5 C -0.557393,10.6296 0.109274,6.12963 4.5,2C 9.08274,0.926692 13.7494,0.426692 18.5,0.5C 24.8542,0.377375 30.8542,1.04404 36.5,2.5C 36.7417,5.59357 36.2417,8.59357 35,11.5C 35.0527,8.38732 33.886,5.88732 31.5,4C 23.1579,2.04058 14.8246,2.04058 6.5,4C 2.88644,6.94416 1.55311,10.7775 2.5,15.5 Z"/></g>
<g><path style="opacity:0.693" fill="#fdfdfd" d="M 32.5,17.5 C 30.7376,17.3573 29.0709,17.6906 27.5,18.5C 26.1667,14.8333 26.1667,11.1667 27.5,7.5C 28.1667,7.16667 28.8333,6.83333 29.5,6.5C 30.4742,8.74269 30.8076,11.076 30.5,13.5C 32.5,13.1667 34.5,12.8333 36.5,12.5C 36.5922,15.4 35.2589,17.0667 32.5,17.5 Z"/></g>
<g><path style="opacity:0.735" fill="#fefefe" d="M 2.5,15.5 C 6.14616,12.2278 10.3128,10.8944 15,11.5C 23.7565,4.54413 27.0899,6.54413 25,17.5C 21.9866,21.0571 18.32,22.3904 14,21.5C 10.9716,25.7665 6.80493,28.0999 1.5,28.5C 1.46716,24.1311 1.80049,19.7978 2.5,15.5 Z M 19.5,12.5 C 22.0784,14.1258 21.9117,15.7924 19,17.5C 18.3603,15.735 18.5269,14.0683 19.5,12.5 Z M 6.5,17.5 C 7.78786,19.0348 7.78786,20.7015 6.5,22.5C 6.19283,21.1125 6.19283,19.4458 6.5,17.5 Z"/></g>
<g><path style="opacity:0.67" fill="#fefefe" d="M 32.5,17.5 C 33.8333,17.5 35.1667,17.5 36.5,17.5C 36.8194,21.3107 35.3194,22.6441 32,21.5C 30.1153,22.3133 29.4487,23.6467 30,25.5C 32.0065,24.3313 34.1732,23.6646 36.5,23.5C 36.719,24.675 36.3857,25.675 35.5,26.5C 32.8333,27.8333 30.1667,29.1667 27.5,30.5C 26.0295,29.6195 25.1962,28.2861 25,26.5C 21.0083,29.4225 17.8417,33.0892 15.5,37.5C 15.1667,36.1667 14.8333,34.8333 14.5,33.5C 16.3394,30.6599 17.0061,27.6599 16.5,24.5C 19.2883,23.0219 22.1217,21.6886 25,20.5C 25.805,22.9011 26.6383,22.7344 27.5,20C 29.3146,19.2432 30.9812,18.4098 32.5,17.5 Z"/></g>
<g><path style="opacity:0.501" fill="#fefffe" d="M 33.5,28.5 C 34.3764,28.3691 35.0431,28.7025 35.5,29.5C 32.4547,37.3788 26.9547,42.7122 19,45.5C 11.3662,43.2775 5.86624,38.6108 2.5,31.5C 3.5,30.1667 4.5,30.1667 5.5,31.5C 13.0474,45.1839 21.5474,45.8506 31,33.5C 31.8466,31.8068 32.6799,30.1401 33.5,28.5 Z"/></g>
</svg>
