<svg width="63" height="78" viewBox="0 0 63 78" fill="none" xmlns="http://www.w3.org/2000/svg">
<path d="M29.5198 17.3122L34.7461 38.13M29.5198 17.3122L9.19241 15.8514M29.5198 17.3122L37.715 6.80725M34.7461 38.13L17.6495 49.5345L1.85976 35.7685M34.7461 38.13L47.2544 41.5987M9.19241 15.8514L1.85976 35.7685M9.19241 15.8514L3.59001 3.53054M37.715 6.80725L32.9756 -11.5387M37.715 6.80725L55.6542 8.2333M47.2544 41.5987L49.2811 63.9572M47.2544 41.5987L61.8543 30.1178M1.85976 35.7685L-9.86691 38.8645M17.6528 49.5375L17.0035 62.2911M17.0035 62.2911L34.0281 74.1921M17.0035 62.2911L-3.3804 70.3354M-9.86691 38.8645L-24.1598 23.4618M-9.86691 38.8645L-13.4568 61.5505M3.59001 3.53054L-17.5589 5.68357M3.59001 3.53054L11.4723 -13.807M52.1808 60.602C37.0934 79.9415 9.82608 82.5083 -8.72456 66.3351C-27.2752 50.162 -30.0825 21.3751 -14.9951 2.03551C0.0922666 -17.304 27.3596 -19.8708 45.9102 -3.69768C64.4609 12.4754 67.2682 41.2624 52.1808 60.602Z" stroke="#44D62D" stroke-width="2" stroke-linecap="round" stroke-linejoin="round"/>
</svg>
