<svg width="29" height="49" viewBox="0 0 29 49" fill="none" xmlns="http://www.w3.org/2000/svg">
<path d="M8.0136 9.43975L10.6411 22.535M8.0136 9.43975L-4.64745 9.20592M8.0136 9.43975L13.4587 2.45997M10.6411 22.535L-0.395687 30.3939L-9.84249 22.1578M10.6411 22.535L18.353 24.3175M-4.64745 9.20592L-9.84249 22.1578M-4.64745 9.20592L-7.77092 1.54177M13.4587 2.45997L11.0597 -9.07577M13.4587 2.45997L24.6281 2.75361M18.353 24.3175L18.9332 38.5049M18.353 24.3175L27.8314 16.4956M-9.84249 22.1578L-17.2675 24.5345M-0.393677 30.3957L-1.19124 38.5503M-1.19124 38.5503L9.08471 45.5548M-1.19124 38.5503L-14.1795 44.3795M-17.2675 24.5345L-25.7284 15.2034M-17.2675 24.5345L-20.2081 39.1235M-7.77092 1.54177L-21.0565 3.64051M-7.77092 1.54177L-2.31152 -9.78415M20.8487 36.2659C10.8242 49.1157 -6.29845 51.6883 -17.3971 42.0121C-28.4957 32.3359 -29.3664 14.0761 -19.3419 1.22632C-9.31738 -11.6235 7.80526 -14.196 18.9039 -4.51981C30.0025 5.15638 30.8732 23.4162 20.8487 36.2659Z" stroke="#44D62D" stroke-width="2" stroke-linecap="round" stroke-linejoin="round"/>
</svg>
