<svg width="65" height="65" viewBox="0 0 65 65" fill="none" xmlns="http://www.w3.org/2000/svg">
<path d="M30.8323 4.29307L36.0586 25.1109M30.8323 4.29307L10.5049 2.83227M30.8323 4.29307L39.0275 -6.21186M36.0586 25.1109L18.962 36.5154L3.17226 22.7494M36.0586 25.1109L48.5669 28.5796M10.5049 2.83227L3.17226 22.7494M10.5049 2.83227L4.90251 -9.48857M39.0275 -6.21186L34.2881 -24.5578M39.0275 -6.21186L56.9667 -4.7858M48.5669 28.5796L50.5936 50.9381M48.5669 28.5796L63.1668 17.0987M3.17226 22.7494L-8.55441 25.8454M18.9653 36.5184L18.316 49.2719M18.316 49.2719L35.3406 61.173M18.316 49.2719L-2.0679 57.3163M-8.55441 25.8454L-22.8473 10.4427M-8.55441 25.8454L-12.1443 48.5314M4.90251 -9.48857L-16.2464 -7.33553M4.90251 -9.48857L12.7848 -26.8261M53.4933 47.5829C38.4059 66.9224 11.1386 69.4892 -7.41206 53.316C-25.9627 37.1429 -28.77 8.35597 -13.6826 -10.9836C1.40477 -30.3232 28.6721 -32.8899 47.2227 -16.7168C65.7734 -0.543656 68.5807 28.2433 53.4933 47.5829Z" stroke="#44D62D" stroke-width="2" stroke-linecap="round" stroke-linejoin="round"/>
</svg>
